<?xml version="1.0" encoding="utf-8"?>
<!-- Generator: Adobe Illustrator 24.1.3, SVG Export Plug-In . SVG Version: 6.00 Build 0)  -->
<svg version="1.1" id="Camada_1" xmlns="http://www.w3.org/2000/svg" xmlns:xlink="http://www.w3.org/1999/xlink" x="0px" y="0px"
	 viewBox="0 0 282.58 253.71" style="enable-background:new 0 0 282.58 253.71;" xml:space="preserve">
<style type="text/css">
	.st0{fill:#FFFFFF;}
	.st1{fill:#992162;}
	.st2{fill:#DB9600;}
	.st3{fill:#76AADB;}
</style>
<g>
	<path class="st0" d="M250.97,110.47c-0.11-2.6-0.38-5.32-0.79-8.09c-0.43-2.9-1.07-5.77-1.89-8.54c-0.95-3.22-2.27-6.2-3.92-8.83
		c-1.96-3.13-4.47-5.72-7.47-7.69c-2.26-1.49-4.77-2.49-7.47-3.01c2.5-6.26,2.31-13.98-0.85-22.21
		c-7.16-18.65-22.59-33.09-41.27-38.63c-6.63-1.96-14.18-3.01-23.09-3.2c-1.03-0.02-2.05-0.03-3.08-0.03
		c-25.75,0-53.41,7.13-79.99,20.62c-7.99,4.05-16.95,9.26-22.8,17.09c-4.01,5.37-11.75,19.47-8.84,30.83
		c-0.89,0.19-1.77,0.4-2.63,0.64c-2.64,0.69-4.96,1.9-6.89,3.6c-3,2.64-4.65,6.42-4.65,10.63c0,4,1.76,7.59,4.83,9.84
		c2.13,1.57,4.78,2.41,7.62,2.41c1.15,0,2.3-0.03,3.44-0.1c0.04,0.68,0.08,1.35,0.11,2.02c0.16,3.37,0.26,6.78,0.29,10.16
		c-0.91-0.91-1.93-1.73-3.05-2.43c-1.3-0.82-2.68-1.47-4.12-1.95c-1.75-0.58-3.38-0.87-4.97-0.87c-4.94,0-9.22,2.81-11.44,7.51
		c-0.85,1.79-1.47,3.81-1.85,5.97c-0.29,1.66-0.47,3.33-0.54,4.97c-0.06,1.33-0.08,2.31-0.08,2.98c0,3.63,0.56,7.24,1.67,10.73
		c1.16,3.66,2.9,6.99,5.17,9.9c2.39,3.06,5.34,5.57,8.78,7.46c3.63,1.99,7.7,3.02,12.11,3.09c-5.18,6.86-6.01,16.62-1.94,27.21
		c7.16,18.65,22.59,33.09,41.27,38.63c6.63,1.96,14.18,3.01,23.09,3.2c1.03,0.02,2.05,0.03,3.08,0.03
		c25.75,0,53.41-7.13,79.99-20.62c7.99-4.05,16.95-9.26,22.8-17.09c4.13-5.54,12.23-20.33,8.55-31.86c1.33-0.39,2.6-0.91,3.82-1.55
		c2.72-1.45,5.12-3.41,7.14-5.84c1.76-2.12,3.27-4.56,4.48-7.27c1.04-2.32,1.91-4.81,2.61-7.38c0.65-2.41,1.18-4.9,1.58-7.4
		c0.38-2.39,0.67-4.76,0.87-7.05c0.2-2.26,0.32-4.43,0.38-6.42c0.05-1.89,0.08-3.59,0.08-5.05
		C251.13,115.02,251.08,112.86,250.97,110.47z M201.87,89.48c-1.2,2.86-2.16,5.85-2.87,8.91c0-0.26-0.01-0.52-0.01-0.77
		c0-0.49,0.01-0.98,0.02-1.46c0.04-1.67-0.16-3.3-0.6-4.87c-0.05-0.16-0.1-0.33-0.15-0.49c-0.16-0.47-0.34-0.92-0.54-1.37
		c0.92-0.1,1.82-0.21,2.7-0.32c0.53-0.07,1.1-0.12,1.69-0.16C202.04,89.13,201.95,89.3,201.87,89.48z M148.06,92.26
		c-0.08-0.08-0.14-0.17-0.22-0.25c-0.07-0.07-0.14-0.13-0.21-0.2c0.39,0,0.79-0.01,1.18-0.01C148.55,91.95,148.3,92.1,148.06,92.26z
		 M107.64,93.43c-0.3-0.75-0.6-1.46-0.91-2.14c0.95,0.03,1.92,0.05,2.88,0.08C108.88,91.97,108.22,92.66,107.64,93.43z"/>
	<g>
		<g>
			<g>
				<path class="st1" d="M79.12,85.67c-0.54-0.54-1.25-0.81-2.12-0.81c-1.96,0-3.89,0.21-5.74,0.63c-1.68,0.38-3.39,0.71-5.1,0.99
					c-0.56-0.41-1.16-0.72-1.79-0.91c-0.71-0.21-1.45-0.32-2.2-0.32c-0.54,0-1.05,0.09-1.51,0.26c-0.39,0.14-1.03,0.56-1.03,1.7
					v0.18c-1.55,0.22-3.14,0.43-4.74,0.62c-1.84,0.22-3.65,0.58-5.38,1.07c-1.14,0.29-2.11,0.77-2.88,1.45
					c-0.84,0.74-1.26,1.79-1.26,3.13c0,0.82,0.25,1.41,0.74,1.78c0.43,0.32,1,0.48,1.7,0.48c2.23,0,4.47-0.15,6.63-0.45
					c1.9-0.26,3.87-0.51,5.85-0.75c0.5,4.2,0.86,8.45,1.06,12.64c0.21,4.43,0.32,8.92,0.32,13.34c0,3.42-0.06,6.85-0.17,10.2
					c-0.11,3.31-0.54,6.62-1.28,9.85c-0.22,0.95-0.5,1.89-0.83,2.8c-0.32,0.87-0.74,1.65-1.26,2.33c-0.51,0.65-1.14,1.18-1.88,1.57
					c-0.73,0.38-1.63,0.58-2.68,0.58c-1.44,0-2.66-0.43-3.74-1.31c-1.11-0.91-2.05-2.07-2.78-3.43c-0.75-1.39-1.32-2.88-1.69-4.45
					c-0.38-1.57-0.57-3.01-0.57-4.28c0-1.17,0.14-2.33,0.42-3.44c0.31-1.22,0.46-2.49,0.46-3.78c0-0.69-0.26-1.34-0.78-1.94
					c-0.45-0.52-0.99-0.98-1.62-1.38c-0.61-0.38-1.27-0.7-1.96-0.92c-0.71-0.24-1.3-0.35-1.8-0.35c-0.71,0-1.71,0.31-2.41,1.79
					c-0.46,0.98-0.81,2.12-1.03,3.4c-0.22,1.24-0.35,2.48-0.4,3.68c-0.05,1.18-0.07,2.04-0.07,2.57c0,2.6,0.4,5.19,1.2,7.7
					c0.8,2.52,1.99,4.81,3.53,6.78c1.55,1.99,3.47,3.62,5.7,4.84c2.26,1.24,4.86,1.87,7.73,1.87c2.5,0,4.69-0.44,6.5-1.31
					c1.81-0.87,3.34-2.04,4.57-3.49c1.22-1.44,2.19-3.12,2.9-5.01c0.69-1.85,1.23-3.82,1.6-5.86c0.36-2.02,0.59-4.09,0.69-6.14
					c0.1-2.04,0.15-4,0.15-5.82c0-5.82-0.09-11.69-0.27-17.42c-0.17-5.51-0.61-11.1-1.31-16.63l1.96-0.22
					c0.89-0.13,1.85-0.21,2.84-0.26c1.08-0.05,2.09-0.22,3.02-0.49c1-0.3,1.84-0.81,2.49-1.54c0.68-0.76,1.03-1.9,1.03-3.37
					C79.93,86.93,79.66,86.22,79.12,85.67z"/>
			</g>
			<g>
				<path class="st1" d="M111.95,128.02C111.95,128.02,111.95,128.01,111.95,128.02c-0.4-0.16-0.83-0.25-1.28-0.29
					c-0.41-0.03-0.76-0.05-1.06-0.05c-0.64,0-1.28,0.04-1.93,0.11c-0.4,0.05-0.81,0.1-1.21,0.15c-0.2-1-0.48-2.36-0.84-4.09
					c-0.44-2.13-0.97-4.54-1.59-7.16c-0.62-2.64-1.31-5.4-2.05-8.19c-0.74-2.81-1.54-5.46-2.36-7.89c-0.82-2.43-1.66-4.53-2.49-6.25
					c-0.88-1.83-1.75-2.95-2.65-3.42c-0.33-0.21-0.71-0.36-1.13-0.43c-0.38-0.06-0.76-0.1-1.15-0.1c-1.39,0-2.47,0.4-3.22,1.18
					c-0.7,0.73-1.2,1.69-1.49,2.85c-0.3,1.14-0.53,2.29-0.7,3.42c-0.16,1.12-0.3,2.27-0.4,3.42c-0.1,1.15-0.2,2.29-0.29,3.44
					c-0.09,1.12-0.19,2.25-0.31,3.36c-0.44,4.12-0.94,8.27-1.49,12.32c-0.54,3.95-1.11,7.94-1.7,11.86
					c-0.16,0.07-0.33,0.15-0.52,0.25c-0.35,0.18-0.7,0.39-1.04,0.63c-0.35,0.25-0.65,0.52-0.91,0.81c-0.33,0.38-0.5,0.81-0.5,1.27
					c0,0.42,0.16,0.8,0.47,1.1c0.23,0.23,0.51,0.43,0.83,0.58c0.28,0.13,0.58,0.24,0.88,0.33c0.03,0.01,0.07,0.02,0.1,0.03
					c-0.28,1.69-0.54,3.4-0.77,5.1c-0.26,1.89-0.55,3.83-0.88,5.77c-0.08,0.57-0.19,1.14-0.32,1.71c-0.14,0.63-0.21,1.27-0.21,1.91
					c0,0.69,0.14,1.33,0.42,1.89c0.27,0.55,0.65,1.03,1.11,1.43c0.46,0.39,0.98,0.69,1.57,0.91c0.59,0.22,1.19,0.33,1.8,0.33
					c0.6,0,1.04-0.14,1.32-0.42c0.2-0.2,0.4-0.5,0.6-0.91c0.24-0.45,0.44-1.1,0.62-2c0.16-0.83,0.31-1.74,0.45-2.7
					c0.13-0.92,0.25-1.87,0.35-2.81l0.24-2.12l1.32-8.09c1.68-0.16,3.36-0.34,4.99-0.52c1.62-0.18,3.23-0.37,4.82-0.58
					c0.83,5.12,1.59,10.29,2.26,15.41c0.12,0.79,0.22,1.46,0.31,2.01c0.11,0.65,0.33,1.2,0.66,1.64c0.35,0.47,0.85,0.8,1.47,0.99
					c0.55,0.17,1.3,0.25,2.29,0.25h0.62c0.31,0,0.65-0.02,1.02-0.05c0.4-0.03,0.79-0.11,1.15-0.23c0.4-0.13,0.75-0.34,1.04-0.61
					c0.25-0.23,0.55-0.66,0.55-1.38c0-0.32-0.04-0.59-0.14-0.83c-0.05-0.13-0.11-0.28-0.15-0.42c-0.57-1.94-0.94-3.92-1.09-5.9
					c-0.16-2.05-0.41-4.11-0.73-6.14l-0.95-5.83c0.06-0.01,0.13-0.03,0.2-0.04c0.36-0.07,0.74-0.14,1.13-0.22
					c0.4-0.07,0.79-0.16,1.16-0.25c0.43-0.11,0.72-0.21,0.94-0.34c0.61-0.37,1.17-0.95,1.67-1.71c0.51-0.78,0.77-1.56,0.77-2.31
					c0-0.58-0.17-1.07-0.5-1.44C112.76,128.44,112.39,128.19,111.95,128.02z M98.27,129.33c-1.32,0.27-2.64,0.52-3.96,0.76h0
					c-1.21,0.22-2.46,0.43-3.72,0.62c0.65-4.05,1.26-8.14,1.83-12.17c0.46-3.24,0.89-6.52,1.3-9.8c0.81,2.96,1.55,5.95,2.2,8.9
					C96.75,121.48,97.54,125.4,98.27,129.33z"/>
			</g>
			<g>
				<path class="st1" d="M146.39,153.03c-0.28-3.73-0.52-7.55-0.72-11.34c-0.19-3.78-0.45-7.65-0.76-11.49
					c-0.31-4.47-0.79-8.97-1.41-13.38c-0.62-4.36-1.4-8.78-2.32-13.14c0.15-1,0.22-1.97,0.22-2.87c0-0.7-0.26-1.32-0.76-1.85
					c-0.43-0.45-0.96-0.82-1.56-1.12c-0.58-0.28-1.19-0.5-1.81-0.64c-1.31-0.3-2.25-0.27-3.05,0c-0.37,0.12-1,0.5-1,1.65
					c0,0.51,0.08,1.01,0.23,1.48c0.11,0.33,0.16,0.7,0.16,1.1c0,0.71-0.07,1.41-0.2,2.09c-0.14,0.73-0.28,1.48-0.41,2.25
					c-0.7,4.44-1.44,8.93-2.22,13.34c-0.59,3.34-1.17,6.71-1.75,10.06c-0.05-0.22-0.11-0.45-0.16-0.69c-0.4-1.72-0.85-3.6-1.33-5.66
					c-0.48-2.06-0.99-4.2-1.52-6.43c-0.53-2.22-1.07-4.33-1.59-6.25c-0.52-1.93-1.03-3.64-1.49-5.09c-0.46-1.43-0.88-2.43-1.26-3.05
					c-0.28-1.13-0.83-1.96-1.62-2.47c-0.77-0.5-1.74-0.76-2.85-0.76c-0.5,0-0.88,0.08-1.16,0.26c-0.31,0.19-0.55,0.54-0.72,1.02
					c-0.08,0.2-0.18,0.56-0.27,1.84c-0.07,0.9-0.12,2.04-0.18,3.4c-0.05,1.36-0.1,2.89-0.16,4.59c-0.05,1.71-0.1,3.46-0.16,5.25
					c-0.05,1.8-0.1,3.58-0.14,5.34c-0.04,1.76-0.07,3.39-0.1,4.88c-0.03,1.5-0.05,2.79-0.06,3.89c-0.01,1.1-0.02,1.87-0.02,2.31
					c0,3.15,0.08,6.32,0.24,9.41c0.15,3.08,0.23,6.22,0.23,9.34c0,1.75,0.49,3.03,1.45,3.8c0.92,0.74,2.21,1.11,3.85,1.11
					c0.64,0,1.25-0.13,1.79-0.37c0.5-0.23,1.09-0.75,1.09-1.96c0-0.79-0.08-1.6-0.23-2.39c-0.14-0.73-0.25-1.47-0.32-2.2
					c-0.31-3.38-0.53-6.82-0.66-10.23c-0.12-3.22-0.19-6.51-0.19-9.78c0.09,0.37,0.18,0.75,0.28,1.13c0.37,1.49,0.76,3.03,1.17,4.6
					c0.41,1.58,0.84,3.1,1.28,4.5c0.43,1.4,0.85,2.64,1.24,3.69c0.43,1.14,0.83,1.9,1.21,2.3c0.42,0.51,0.86,0.9,1.33,1.16
					c0.49,0.28,1.12,0.42,1.86,0.42c1.05,0,1.86-0.29,2.41-0.85c0.48-0.49,0.88-1.17,1.21-2.01c0.72-1.91,1.25-3.91,1.58-5.95
					c0.32-1.99,0.67-3.97,1.03-5.87c0.37-1.85,0.72-3.67,1.06-5.47c0.04-0.24,0.09-0.48,0.14-0.72c0.32,3.7,0.57,7.41,0.74,11.07
					c0.24,5.18,0.47,10.52,0.68,15.87c0.03,0.71,0.07,1.25,0.12,1.67c0.07,0.51,0.24,0.95,0.51,1.29c0.27,0.34,0.65,0.61,1.14,0.81
					c0.4,0.16,0.92,0.34,1.58,0.52c0.34,0.14,0.7,0.25,1.07,0.32c0.38,0.07,0.75,0.11,1.11,0.11c0.82,0,1.43-0.25,1.81-0.73
					c0.34-0.44,0.52-1,0.52-1.68c0-0.26-0.01-0.51-0.04-0.75C146.48,153.49,146.44,153.26,146.39,153.03z"/>
			</g>
			<g>
				<path class="st1" d="M178.03,143.15C178.03,143.15,178.03,143.15,178.03,143.15c-0.33-0.41-0.72-0.75-1.14-1.02
					c-0.48-0.31-0.98-0.46-1.51-0.46c-0.56,0-1.05,0.18-1.47,0.54c-0.28,0.24-0.56,0.48-0.85,0.71c-0.02,0.01-0.03,0.03-0.05,0.05
					c-0.65,0.65-1.44,1.33-2.33,2.01c-0.9,0.68-1.85,1.32-2.84,1.89c-0.97,0.56-1.99,1.03-3.01,1.39c-0.99,0.35-1.94,0.53-2.82,0.53
					c-0.5,0-0.88-0.06-1.15-0.19c-0.21-0.1-0.43-0.35-0.64-0.73c-0.07-0.19-0.19-0.65-0.34-1.76c-0.13-0.95-0.25-2.08-0.35-3.34
					c-0.1-1.3-0.2-2.68-0.29-4.11c-0.09-1.46-0.17-2.88-0.23-4.23l-0.26-5.46c0.83-0.04,1.66-0.06,2.48-0.08
					c1.05-0.03,2.14-0.07,3.25-0.12c0.41-0.03,0.89-0.04,1.42-0.04c0.6,0,1.19-0.05,1.74-0.15c0.6-0.1,1.14-0.29,1.63-0.57
					c0.57-0.32,0.97-0.83,1.2-1.47c0.15-0.37,0.25-0.75,0.3-1.12c0.04-0.34,0.06-0.71,0.06-1.1c0-0.67-0.16-1.22-0.48-1.63
					c-0.36-0.46-0.93-0.7-1.7-0.7c-0.23,0-0.47,0.02-0.7,0.05c-0.16,0.02-0.35,0.03-0.55,0.03c-0.03,0-0.07,0-0.1,0.01
					c-1.62,0.23-3.22,0.44-4.78,0.62c-1.34,0.15-2.71,0.29-4.07,0.41c-0.12-2.59-0.25-5.16-0.38-7.68
					c-0.14-2.73-0.21-5.54-0.21-8.36c0-0.41,0.02-0.82,0.07-1.2c0.03-0.22,0.07-0.43,0.13-0.65c0.35-0.02,0.71-0.04,1.06-0.04h6.64
					c0.6,0,1.35,0.01,2.27,0.02c0.96,0.01,1.91-0.06,2.81-0.23c0.96-0.17,1.8-0.52,2.51-1.04c0.81-0.59,1.22-1.48,1.22-2.65
					c0-0.88-0.46-1.24-0.73-1.38c-0.29-0.14-0.62-0.25-0.99-0.31c-0.58-0.14-1.17-0.19-1.75-0.15c-0.5,0.04-1.01,0.06-1.51,0.06
					c-1.72,0-3.44-0.01-5.12-0.04c-1.73-0.03-3.45-0.04-5.11-0.04c-1.75,0-3.19,0.17-4.28,0.5c-1.16,0.35-2.07,0.94-2.71,1.76
					c-0.62,0.79-1.03,1.8-1.23,3c-0.19,1.12-0.28,2.5-0.28,4.1c0,0.91,0.01,1.84,0.04,2.75c0.03,0.91,0.07,1.84,0.12,2.73
					c0.23,7.93,0.55,15.97,0.94,23.9c0.03,0.78,0.06,1.68,0.1,2.68c0.04,1,0.09,2.04,0.16,3.08c0.07,1.05,0.17,2.08,0.3,3.06
					c0.13,1,0.33,1.88,0.58,2.64c0.34,0.97,0.84,1.81,1.47,2.5c0.62,0.68,1.34,1.24,2.13,1.68c0.78,0.43,1.64,0.76,2.54,0.97
					c0.89,0.21,1.81,0.31,2.71,0.31c0.03,0,0.06,0,0.09-0.01l0.58-0.07c1.1,0,2.16-0.11,3.17-0.33c1.01-0.21,2-0.51,2.96-0.89
					c0.95-0.38,1.89-0.82,2.78-1.33c0.87-0.49,1.77-1.04,2.66-1.61c0.34-0.21,0.77-0.48,1.29-0.8c0.54-0.34,1.07-0.71,1.59-1.12
					c0.53-0.42,0.99-0.86,1.37-1.31c0.46-0.54,0.69-1.13,0.69-1.73c0-0.43-0.1-0.89-0.3-1.39
					C178.62,144,178.36,143.55,178.03,143.15z"/>
			</g>
			<g>
				<path class="st1" d="M205.77,145.03c-0.39-0.44-0.84-0.82-1.32-1.12c-1.19-0.74-2.37-0.63-3.15,0.11
					c-0.3,0.28-0.58,0.56-0.82,0.8c-0.53,0.48-1.29,0.94-2.24,1.38c-0.99,0.45-2.07,0.87-3.19,1.22c-1.13,0.36-2.26,0.65-3.38,0.88
					c-0.8,0.16-1.51,0.28-2.13,0.34c-0.05-0.64-0.08-1.28-0.09-1.91c-0.02-0.87-0.02-1.75-0.02-2.62c0-7.72-0.04-15.53-0.11-23.2
					c-0.07-7.66-0.18-15.46-0.33-23.19c0-0.61,0.01-1.21,0.02-1.81c0.02-0.67-0.06-1.3-0.23-1.93c-0.18-0.53-0.45-1-0.83-1.41
					c-0.35-0.38-0.76-0.72-1.21-0.99c-0.45-0.27-0.94-0.47-1.45-0.6c-0.51-0.13-1-0.2-1.47-0.2c-0.6,0-1.09,0.19-1.45,0.55
					c-0.31,0.31-0.54,0.68-0.69,1.12c-0.14,0.39-0.22,0.82-0.26,1.27c-0.03,0.41-0.05,0.77-0.05,1.08c0,1.25,0.03,2.49,0.09,3.68
					c0.06,1.18,0.09,2.4,0.09,3.61c0,7.84-0.03,15.73-0.09,23.45c-0.06,7.65-0.09,15.51-0.09,23.38c0,1.18,0.19,2.2,0.56,3.05
					c0.38,0.86,0.93,1.58,1.63,2.13c0.68,0.54,1.49,0.94,2.42,1.2c0.89,0.25,1.88,0.38,2.93,0.38c0.56,0,1.39-0.08,2.52-0.25
					c1.1-0.16,2.32-0.4,3.63-0.69c1.31-0.29,2.67-0.66,4.05-1.09c1.38-0.43,2.67-0.91,3.81-1.44c1.18-0.54,2.17-1.14,2.93-1.8
					c0.87-0.75,1.32-1.58,1.32-2.46c0-0.49-0.15-1.02-0.43-1.56C206.49,145.93,206.16,145.46,205.77,145.03z"/>
			</g>
			<g>
				<path class="st1" d="M240.98,110.91c-0.1-2.25-0.33-4.62-0.69-7.05c-0.36-2.43-0.89-4.84-1.58-7.17
					c-0.7-2.36-1.64-4.5-2.81-6.37c-1.19-1.9-2.69-3.46-4.48-4.63c-1.82-1.19-4-1.8-6.51-1.8c-0.83,0-1.65,0.09-2.46,0.26
					c-0.65,0.14-1.28,0.36-1.88,0.65c-0.16-0.14-0.32-0.26-0.51-0.37c-0.76-0.45-1.62-0.46-2.45,0.02c-0.34,0.2-0.68,0.43-1,0.7
					c-0.31,0.26-0.6,0.53-0.87,0.82c-0.25,0.27-0.47,0.51-0.64,0.71c-1.63,1.97-2.98,4.21-4.01,6.67c-1.02,2.43-1.84,4.99-2.43,7.61
					c-0.59,2.61-1,5.28-1.21,7.93c-0.21,2.63-0.32,5.2-0.32,7.62c0,1.43,0.05,3.13,0.15,5.04c0.1,1.91,0.25,3.95,0.47,6.06
					c0.21,2.12,0.5,4.31,0.86,6.49c0.36,2.19,0.8,4.33,1.31,6.35c0.51,2.04,1.11,3.94,1.78,5.67c0.69,1.76,1.5,3.27,2.4,4.48
					c1.13,1.54,2.53,2.79,4.17,3.73c1.66,0.95,3.53,1.43,5.57,1.43c2.03,0,3.86-0.43,5.45-1.28c1.57-0.84,2.97-1.98,4.16-3.41
					c1.18-1.41,2.19-3.07,3.03-4.94c0.82-1.85,1.53-3.84,2.09-5.91c0.56-2.07,1.01-4.21,1.36-6.37c0.34-2.15,0.61-4.29,0.79-6.35
					c0.18-2.06,0.3-4.02,0.34-5.83c0.05-1.8,0.07-3.41,0.07-4.78C241.13,115.16,241.08,113.15,240.98,110.91z M224.91,91.42
					c0.98,0,1.81,0.48,2.55,1.46c0.81,1.09,1.51,2.52,2.07,4.24c0.57,1.76,1.03,3.75,1.37,5.92c0.34,2.19,0.61,4.35,0.8,6.43
					c0.19,2.08,0.32,4,0.36,5.72c0.05,1.72,0.07,3.02,0.07,3.86c0,1.25-0.03,2.72-0.1,4.39c-0.06,1.66-0.18,3.43-0.34,5.26
					c-0.16,1.83-0.4,3.71-0.73,5.58c-0.32,1.87-0.73,3.68-1.2,5.37c-0.47,1.67-1.07,3.22-1.76,4.61c-0.67,1.35-1.48,2.44-2.36,3.24
					c-0.35,0.29-0.72,0.57-1.08,0.83c-0.27,0.19-0.57,0.29-0.92,0.29c-0.67,0-1.28-0.33-1.86-1.02c-0.67-0.79-1.29-1.87-1.84-3.21
					c-0.57-1.38-1.08-2.98-1.5-4.78c-0.44-1.82-0.82-3.74-1.14-5.71c-0.32-1.99-0.6-4.01-0.83-5.99c-0.23-1.99-0.41-3.89-0.53-5.64
					c-0.13-1.74-0.23-3.31-0.29-4.67c-0.06-1.34-0.1-2.36-0.1-3.04c0-2.22,0.11-4.44,0.31-6.6c0.18-1.92,0.51-3.87,0.96-5.81
					c0.54,0.12,1.1,0.13,1.72,0.09c0.38-0.03,0.68-0.15,0.87-0.34c0.37-0.33,0.7-0.84,1.01-1.57c0.26-0.63,0.55-1.34,0.84-2.12
					c0.29-0.78,0.59-1.61,0.88-2.46c0.28-0.82,0.6-1.58,0.94-2.26c0.33-0.66,0.68-1.21,1.03-1.62
					C224.46,91.46,224.74,91.42,224.91,91.42z"/>
			</g>
		</g>
		<g>
			<path class="st2" d="M199.19,79.19c5.42-0.68,11.34-0.1,15.76-2.67c7.62-4.43,7.06-13.64,4.3-20.83
				c-5.43-14.15-17.41-27.48-34.77-32.62c-6.52-1.93-13.52-2.64-20.46-2.79c-27.74-0.6-54.89,7.61-78.32,19.5
				c-7.44,3.78-14.79,8.1-19.31,14.15c-4.52,6.05-10.69,19.57-5.64,25.34C60.75,79.28,151.86,85.08,199.19,79.19z"/>
		</g>
		<g>
			<path class="st3" d="M80.8,165.48c-5.42,0.68-11.34,0.1-15.76,2.67c-7.62,4.43-7.06,13.64-4.3,20.83
				c5.43,14.15,17.41,27.48,34.77,32.62c6.52,1.93,13.52,2.64,20.46,2.79c27.74,0.6,54.89-7.61,78.32-19.5
				c7.44-3.78,14.79-8.1,19.31-14.15c4.52-6.05,10.69-19.57,5.64-25.34C219.24,165.39,128.13,159.59,80.8,165.48z"/>
		</g>
	</g>
</g>
</svg>
